<?xml version="1.0" encoding="utf-8"?>
<!-- Generator: Adobe Illustrator 24.3.0, SVG Export Plug-In . SVG Version: 6.00 Build 0)  -->
<svg version="1.1" id="Layer_1" xmlns="http://www.w3.org/2000/svg" xmlns:xlink="http://www.w3.org/1999/xlink" x="0px" y="0px"
	 viewBox="0 0 207.22 109.79" style="enable-background:new 0 0 207.22 109.79;" xml:space="preserve">
<style type="text/css">
	.st0{fill:#EC6608;}
	.st1{fill:#BB7CB3;}
	.st2{fill:#CDCC00;}
	.st3{fill:#0097C8;}
	.st4{fill:#FFFFFF;}
</style>
<g>
	<path class="st0" d="M41.69,11.57c0.38,0.38,0.66,0.85,0.66,1.32c0,1.13-1.5,2.63-7.33,3.85c0,0.09-9.96,1.6-9.96,3.95
		c0,2.54,12.97,3.38,18.04,4.98V15.51C43.1,12.97,42.44,12.13,41.69,11.57L41.69,11.57z"/>
	<path class="st1" d="M8.06,92.93c41.9-5.73,53.93-10.99,53.93-14.94c0-11.84-49.7-8.46-53.93-18.51V92.93z"/>
	<path class="st2" d="M25.25,51.87c0,2.72,5.54,4.98,18.79,6.58c4.89,0.56,12.5,1.41,18.32,3.01V42.29c0-4.79-1.32-7.8-2.82-9.02
		c3.57,5.26-3.85,8.93-14,10.8C35.96,45.86,25.25,47.27,25.25,51.87L25.25,51.87z"/>
	<path class="st3" d="M18.2,26.03v16.82c5.54-2.07,25.27-5.07,25.27-8.08C43.48,30.45,25.81,31.11,18.2,26.03z"/>
</g>
<g>
	<g>
		<path class="st4" d="M89.44,61.68h-4.47l-3.92-6.04v6.04h-3.77V48h3.77v5.77L84.66,48h4.37l-4.38,6.63L89.44,61.68z"/>
		<path class="st4" d="M98.67,48h3.64v13.68h-3.11l-5.44-7.42v7.42h-3.64V48h3.29l5.26,7.18V48z"/>
		<path class="st4" d="M111.39,62.03c-1.45,0-2.75-0.31-3.89-0.92c-1.14-0.61-2.04-1.47-2.68-2.56c-0.64-1.09-0.96-2.33-0.96-3.7
			s0.32-2.61,0.96-3.7s1.53-1.95,2.68-2.56c1.14-0.61,2.44-0.92,3.89-0.92c1.08,0,2.09,0.18,3.02,0.54
			c0.93,0.36,1.73,0.85,2.39,1.48c0.66,0.63,1.17,1.39,1.55,2.28c0.38,0.89,0.56,1.86,0.56,2.89c0,1.03-0.19,1.99-0.56,2.89
			c-0.38,0.89-0.89,1.65-1.55,2.28c-0.66,0.63-1.45,1.12-2.39,1.48C113.48,61.85,112.47,62.03,111.39,62.03z M108.8,57.48
			c0.68,0.7,1.54,1.04,2.59,1.04c1.04,0,1.9-0.35,2.58-1.04c0.67-0.69,1.01-1.57,1.01-2.64c0-1.07-0.34-1.95-1.01-2.64
			c-0.67-0.69-1.53-1.04-2.58-1.04c-1.04,0-1.9,0.35-2.59,1.04c-0.68,0.69-1.02,1.57-1.02,2.63
			C107.78,55.9,108.12,56.78,108.8,57.48z"/>
		<path class="st4" d="M135.07,48h4.01l-4.22,13.68h-3.31l-2.62-6.6l-2.58,6.6h-3.32L118.75,48h4.06l2.21,7.89l3.26-7.82h1.3
			l3.32,7.82L135.07,48z"/>
		<path class="st4" d="M143.94,58.23h4.87v3.45h-8.68V48h3.82V58.23z"/>
		<path class="st4" d="M153.86,58.41h5.16v3.27h-8.91V48h8.75v3.26h-5v2.01h4.49v3.09h-4.49V58.41z"/>
		<path class="st4" d="M166.33,48c1.36,0,2.58,0.29,3.65,0.87c1.07,0.58,1.91,1.39,2.51,2.43c0.6,1.04,0.9,2.22,0.9,3.54
			s-0.3,2.49-0.9,3.53c-0.6,1.04-1.43,1.85-2.51,2.44c-1.08,0.59-2.29,0.88-3.65,0.88h-5.53V48H166.33z M166.15,58.23
			c1.01,0,1.83-0.31,2.45-0.94c0.62-0.63,0.93-1.45,0.93-2.46c0-1.02-0.31-1.84-0.93-2.45c-0.62-0.62-1.44-0.93-2.45-0.93h-1.57
			v6.77H166.15z"/>
		<path class="st4" d="M181.24,54.37h7.5c0,1.11-0.18,2.13-0.53,3.08c-0.35,0.95-0.84,1.76-1.47,2.43c-0.63,0.67-1.39,1.2-2.29,1.57
			c-0.9,0.38-1.87,0.57-2.93,0.57c-1.03,0-2-0.18-2.9-0.54c-0.9-0.36-1.67-0.85-2.31-1.48c-0.64-0.63-1.14-1.39-1.51-2.28
			c-0.37-0.89-0.55-1.85-0.55-2.87c0-1.02,0.18-1.98,0.54-2.87c0.36-0.89,0.86-1.65,1.5-2.28c0.64-0.63,1.4-1.13,2.3-1.49
			c0.9-0.36,1.87-0.54,2.9-0.54c1.79,0,3.35,0.51,4.68,1.52c1.32,1.01,2.13,2.31,2.42,3.9h-3.95c-0.25-0.58-0.65-1.04-1.22-1.38
			c-0.56-0.34-1.19-0.51-1.89-0.51c-1.02,0-1.85,0.34-2.48,1.01c-0.63,0.67-0.95,1.56-0.95,2.65c0,1.09,0.31,1.97,0.94,2.64
			c0.63,0.67,1.46,1.01,2.49,1.01c0.72,0,1.36-0.16,1.93-0.48c0.57-0.32,0.96-0.74,1.17-1.27h-3.4V54.37z"/>
		<path class="st4" d="M194,58.41h5.16v3.27h-8.91V48H199v3.26h-5v2.01h4.49v3.09H194V58.41z"/>
		<path class="st4" d="M83.84,79.26c-1.37,0-2.61-0.31-3.72-0.94c-1.11-0.62-1.98-1.48-2.61-2.58c-0.63-1.09-0.94-2.32-0.94-3.66
			c0-1.35,0.31-2.58,0.94-3.68c0.63-1.1,1.5-1.96,2.61-2.58c1.11-0.62,2.35-0.94,3.72-0.94c1.79,0,3.32,0.54,4.59,1.62
			c1.27,1.08,2.04,2.49,2.32,4.22h-3.82c-0.24-0.71-0.63-1.27-1.18-1.69c-0.55-0.42-1.19-0.63-1.91-0.63c-0.97,0-1.77,0.35-2.4,1.04
			c-0.64,0.69-0.95,1.57-0.95,2.63c0,1.06,0.32,1.93,0.95,2.61c0.64,0.69,1.44,1.03,2.4,1.03c0.76,0,1.41-0.23,1.97-0.68
			c0.56-0.45,0.93-1.06,1.12-1.83h3.85c-0.26,1.8-1.03,3.26-2.31,4.37C87.21,78.7,85.66,79.26,83.84,79.26z"/>
		<path class="st4" d="M92.21,78.92V65.23h3.82v13.68H92.21z"/>
		<path class="st4" d="M108.54,65.23v3.4h-3.72v10.29h-3.78V68.63h-3.72v-3.4H108.54z"/>
		<path class="st4" d="M122.02,65.23l-4.78,8.33v5.35h-3.84v-5.36l-4.74-8.32h4.18l2.5,4.94l2.5-4.94H122.02z"/>
	</g>
</g>
<g>
	<g>
		<path class="st4" d="M86.53,36.05c0.86,0,1.56,0.3,2.09,0.89c0.54,0.59,0.8,1.35,0.8,2.28v5.21h-1.68v-4.79
			c0-0.66-0.14-1.17-0.41-1.53s-0.67-0.54-1.18-0.54c-0.55,0-1.01,0.22-1.37,0.67c-0.37,0.45-0.55,1.02-0.55,1.71v4.48h-1.64v-4.79
			c0-0.66-0.14-1.17-0.41-1.53s-0.67-0.54-1.18-0.54c-0.55,0-1.01,0.22-1.38,0.67c-0.37,0.45-0.56,1.02-0.56,1.71v4.48h-1.68v-8.19
			h1.19l0.29,1.06c0.31-0.39,0.69-0.69,1.14-0.91c0.45-0.22,0.92-0.33,1.41-0.33c0.55,0,1.04,0.13,1.46,0.38
			c0.43,0.25,0.76,0.61,1,1.06c0.3-0.44,0.69-0.79,1.16-1.05C85.48,36.18,85.99,36.05,86.53,36.05z"/>
		<path class="st4" d="M98.26,36.23l1.3,0.01v8.18H98.2l-0.16-0.99c-0.38,0.38-0.82,0.68-1.33,0.88s-1.06,0.31-1.64,0.31
			c-0.8,0-1.53-0.19-2.18-0.56c-0.65-0.37-1.16-0.89-1.53-1.55c-0.37-0.66-0.56-1.39-0.56-2.2c0-0.81,0.19-1.54,0.56-2.2
			c0.37-0.65,0.88-1.17,1.53-1.54c0.65-0.37,1.38-0.56,2.18-0.56c0.59,0,1.15,0.11,1.66,0.32c0.51,0.21,0.96,0.51,1.33,0.9
			L98.26,36.23z M93.27,42.25c0.51,0.51,1.15,0.77,1.92,0.77c0.77,0,1.41-0.26,1.91-0.77c0.51-0.51,0.76-1.15,0.76-1.92
			c0-0.77-0.25-1.41-0.76-1.92c-0.51-0.51-1.14-0.76-1.91-0.76c-0.77,0-1.41,0.26-1.92,0.77c-0.51,0.51-0.76,1.15-0.76,1.91
			C92.51,41.1,92.76,41.74,93.27,42.25z"/>
		<path class="st4" d="M105.58,36.19h0.73v1.59h-0.89c-0.69,0-1.21,0.19-1.56,0.58c-0.35,0.39-0.53,0.95-0.53,1.7v4.37h-1.68v-8.19
			h1.14l0.28,1.12C103.65,36.58,104.49,36.19,105.58,36.19z"/>
		<path class="st4" d="M112.64,44.43l-2.45-3.5h-1.02v3.5h-1.68V33.31h1.68v6.1h1.04l2.21-3.17h2l-2.78,3.93l3.07,4.26H112.64z"/>
		<path class="st4" d="M122.2,36.23l1.3,0.01v8.18h-1.36l-0.16-0.99c-0.38,0.38-0.82,0.68-1.33,0.88c-0.51,0.21-1.06,0.31-1.64,0.31
			c-0.8,0-1.52-0.19-2.18-0.56c-0.65-0.37-1.16-0.89-1.53-1.55c-0.37-0.66-0.56-1.39-0.56-2.2c0-0.81,0.19-1.54,0.56-2.2
			c0.37-0.65,0.88-1.17,1.53-1.54c0.65-0.37,1.38-0.56,2.18-0.56c0.59,0,1.15,0.11,1.66,0.32c0.51,0.21,0.96,0.51,1.33,0.9
			L122.2,36.23z M117.22,42.25c0.51,0.51,1.15,0.77,1.92,0.77s1.41-0.26,1.91-0.77c0.51-0.51,0.76-1.15,0.76-1.92
			c0-0.77-0.25-1.41-0.76-1.92c-0.51-0.51-1.14-0.76-1.91-0.76s-1.41,0.26-1.92,0.77c-0.51,0.51-0.76,1.15-0.76,1.91
			C116.46,41.1,116.71,41.74,117.22,42.25z"/>
		<path class="st4" d="M127.38,42.87h3.94v1.56h-6.57v-0.21l3.97-6.44h-3.66v-1.54h6.25v0.25L127.38,42.87z"/>
	</g>
</g>
<g>
	<path class="st4" d="M120.71,91.99c0.06,0.52,0.38,0.59,0.75,0.59c0.95,0,1.98-1.25,2.32-1.63c-0.02,0.11-0.02,0.2-0.02,0.31
		c0,0.82,0.52,1.81,1.42,1.81c0.04,0,0.35,0.01,0.35-0.15c-0.02-0.1-0.07-0.16-0.31-0.19c-0.47-0.12-0.65-0.68-0.65-1.34
		c0-0.33,0.04-0.68,0.12-1.02c0.44-2.03,1.58-3.71,2.51-5.41c0.14-0.25,0.42-0.58,0.42-0.75c0-0.24-0.34-0.62-0.6-0.62
		c-0.07,0-0.14,0.03-0.18,0.1c-0.23,0.35-1.1,1.73-1.72,2.92c-0.76,1.49-1.15,2.72-1.17,2.81c-0.19-0.24-0.42-0.32-0.69-0.32
		c-0.65,0-1.1,0.38-1.59,0.93l-0.15,0.17c-0.21,0.16-0.54,0.39-0.86,0.56c-0.47,0.24-1.05,0.39-1.29,0.46
		c-0.25-0.16-0.71-0.35-1.04-0.55c-0.37-0.22-0.53-0.36-0.6-0.48c-0.07-0.15,0.08-0.32,0.24-0.41c0.27-0.18,1.09-0.49,1.4-0.36
		c0.13,0.06,0.23,0.15,0.31,0.01c0.05-0.08-0.01-0.18-0.06-0.25c-0.06-0.07-0.12-0.13-0.18-0.18c-0.24-0.18-0.53-0.2-0.85-0.14
		c-0.48,0.1-1.85,0.55-1.46,1.31l0.04,0.08l-0.59,0.53c-0.39,0.35-1.53,1.36-2.14,1.36c-0.08,0-0.16-0.02-0.22-0.06
		c0.06-0.74,0.45-1.33,0.81-1.96c0.04-0.06,0.14-0.17,0.14-0.22c0-0.25-0.32-0.3-0.52-0.31c-0.14,0-0.17-0.01-0.27,0.11
		c-0.16,0.2-0.32,0.51-0.45,0.84c-0.21,0.04-0.44,0.06-0.64,0.06c-0.83,0-1.11-0.83-1.5-0.83c-0.06,0-0.11,0.02-0.14,0.04
		c-0.12,0.1-0.05,0.2,0.05,0.31c0.05,0.06,0.12,0.15,0.12,0.2c-0.19,0.57-1.05,1.56-1.39,1.86c-0.13,0.11-0.15,0.01-0.16-0.12
		c-0.05-0.49,0.12-1.27,0.14-1.52c0.05-0.53-0.15-0.62-0.53-0.62c-0.08,0-0.14,0.01-0.18,0.03c-0.06,0.03-0.1,0.1-0.14,0.18
		c-0.3,0.77-0.93,1.54-1.46,1.95c-0.33,0.25-0.65,0.49-0.52-0.17c0.07-0.37,0.32-1.03,1-2.15c0.03-0.04,0.11-0.11,0.11-0.17
		c0-0.13-0.25-0.35-0.48-0.35c-0.1,0-0.18,0.02-0.36,0.24c-0.34,0.45-0.98,1.72-0.98,2.61c0,0.64,0.32,0.86,0.64,0.86
		c0.98,0,2.02-1.63,2.08-1.73c-0.05,0.4-0.13,1.02,0.19,1.36c0.16,0.16,0.38,0.33,0.65,0.33c0.75,0,1.86-2.03,1.87-2.1
		c0.23,0.23,0.64,0.28,0.93,0.28c0.15,0,0.34-0.01,0.52-0.05c-0.08,0.28-0.13,0.53-0.13,0.72c0,0.33,0.3,0.92,0.94,0.92
		c0.74,0,2.19-1.41,2.88-2.08c0.2,0.21,0.45,0.38,0.72,0.55l0.34,0.22c-0.29,0.07-1.15,0.45-1.38,0.68
		c-0.25,0.18-0.12,0.38,0.1,0.55c0.22,0.16,0.46,0.18,0.74,0.15c0.4-0.04,1.19-0.46,1.59-1.02c0.55-0.22,1.01-0.41,1.4-0.65
		C120.7,91.61,120.7,91.94,120.71,91.99L120.71,91.99z M96.1,93.4c-0.83,0.08-1.79,0.54-2.37,1.11c0.77-2.45,0.6-3.53-0.27-4.01
		c-1.02-0.53-2.03,0.25-3.09,1c0-0.01-0.19,0.17-0.24,0.17c-0.05,0-0.05-0.07-0.04-0.1c0.06-0.31,0.18-0.67,0.52-1.63
		c0.08-0.25,0.32-0.72-0.18-0.81c-0.14-0.02-0.18,0.11-0.21,0.22c-0.22,0.36-0.38,0.68-0.54,0.94c-0.48,0.58-1.79,1.28-2.55,1.43
		c-0.16,0-0.13-0.15-0.13-0.2c0-0.37,0.18-0.9,0.18-1.33c0-0.25-0.1-0.65-0.34-0.79c-0.06-0.04-0.13-0.04-0.21-0.04
		c-0.04,0-0.08,0.08-0.13,0.13c-0.03-0.22-0.56-0.57-1.01-0.57c-0.47,0-1.22,1-1.5,1.34c-0.04,0.04-0.1,0.12-0.15,0.19
		c-0.27,0.07-0.58,0.13-0.86,0.13c-0.83,0-1.11-0.83-1.5-0.83c-0.06,0-0.11,0.02-0.14,0.04c-0.12,0.1-0.05,0.2,0.05,0.31
		c0.05,0.06,0.12,0.15,0.12,0.2c-0.19,0.57-1.05,1.56-1.39,1.86c-0.13,0.11-0.15,0.01-0.16-0.12c-0.05-0.49,0.12-1.27,0.14-1.52
		c0.05-0.53-0.15-0.62-0.53-0.62c-0.08,0-0.14,0.01-0.18,0.03c-0.06,0.03-0.1,0.1-0.14,0.18c-0.3,0.77-0.93,1.54-1.46,1.95
		c-0.33,0.25-0.65,0.49-0.52-0.17c0.07-0.37,0.32-1.03,1-2.15c0.03-0.04,0.11-0.11,0.11-0.17c0-0.13-0.25-0.35-0.48-0.35
		c-0.1,0-0.18,0.02-0.36,0.24c-0.34,0.45-0.98,1.72-0.98,2.61c0,0.64,0.32,0.86,0.64,0.86c0.98,0,2.02-1.63,2.08-1.73
		c-0.05,0.4-0.13,1.02,0.19,1.36c0.16,0.16,0.38,0.33,0.65,0.33c0.75,0,1.86-2.03,1.87-2.1c0.23,0.23,0.64,0.28,0.93,0.28
		c0.17,0,0.38-0.02,0.57-0.06c-0.22,0.39-0.42,0.83-0.42,1.07c0,0.31,0.44,0.69,0.87,0.69c0.7,0,1.85-1.14,2.46-2.05
		c-0.22,0.98,0.06,1.7,0.84,1.7c0.58,0,1.47-0.65,2.18-1.21c-0.06,0.31-0.11,0.68-0.05,1c0.08,0.46,0.56,0.65,0.95,0.28
		c0.36-0.35,0.71-0.7,1.15-1.02c0.39-0.31,0.89-0.68,1.45-0.68c0.7,0,0.71,0.89,0.64,1.47c-0.25,1.97-1.05,3.73-2.19,5.52
		c-0.02,0.05-0.01,0.12,0.04,0.18c0.01,0.01,0.24,0.19,0.32,0.22c0.2,0.08,0.25-0.03,0.36-0.18c0.25-0.34,0.45-0.74,0.64-1.12
		c0.88-1.75,1.93-2.75,3.41-3.24C96.27,93.62,96.26,93.4,96.1,93.4L96.1,93.4z M128.61,90.59c-0.22-0.51-0.87-1.23-1.44-1.23
		c-0.85,0-1.62,1.61-1.62,2.47c0,0.34,0.56,0.99,0.93,0.99c0.91,0,1.75-0.92,2.07-1.69c0.13,0.05,0.27,0.07,0.42,0.07
		c0.37,0,0.8-0.14,1.11-0.33l-0.42,1.28c-0.03,0.11-0.03,0.11-0.03,0.2c0,0.08,0.31,0.36,0.6,0.36c0.19,0,0.47-0.44,0.64-0.66
		c0.42-0.55,0.99-1.27,2.27-2.33c0.07-0.07,0.13-0.11,0.17-0.11c0.06,0,0.11,0.08,0.1,0.2c-0.04,0.4-0.36,0.62-0.71,1.94
		c-0.03,0.13-0.05,0.29,0.02,0.4c0.08,0.15,0.23,0.23,0.4,0.28c0.17,0.03,0.25,0,0.39-0.11c0.44-0.36,0.88-0.88,1.19-1.1
		c-0.15,0.8-0.02,1.5,0.85,1.49c0.63-0.01,1.15-0.45,1.59-0.83c0.71-0.56,1.75-1.71,1.93-2.06c0.04-0.04-0.07-0.16-0.12-0.12
		c-1.82,1.7-3.11,2.48-3.47,2.48c-0.2,0-0.17-0.32-0.07-0.63c0.05-0.23,0.18-0.49,0.24-0.74c0.03-0.15,0.05-0.29,0.03-0.42
		c-0.03-0.17-0.16-0.27-0.3-0.32c-0.2-0.08-0.39,0.02-0.54,0.17c-0.49,0.45-0.85,0.73-1.23,1.17c0.35-0.93,0.49-1.11,0.49-1.61
		c0-0.4-0.25-0.91-0.68-0.91c-0.11,0-0.28,0.03-0.47,0.17c-1.05,0.77-1.73,1.59-2.08,1.94c0.34-0.94,0.51-1.31,0.51-1.6
		c0-0.27-0.31-0.39-0.44-0.39c-0.1,0-0.17,0.05-0.23,0.17c-0.14,0.33-0.25,0.66-0.38,0.99C129.89,90.57,129.24,90.74,128.61,90.59
		L128.61,90.59z M101.59,85.01c0,0,0.25-0.2-0.27-0.62c-0.5-0.39-0.68,0.01-0.68,0.01c-0.38,0.65-0.74,1.35-1.07,2.06
		c-0.66-0.11-1.29-0.2-1.9-0.2c-0.8,0-1.74,0.16-2.28,0.64c-0.1,0.1-0.18,0.17-0.18,0.25c0,0.21,0.49,0.41,0.66,0.41
		c0.08-0.02,0.11,0,0.25-0.11c0.55-0.49,1.39-0.55,2.12-0.55c0.35,0,0.71,0.03,1.08,0.08c-1,2.27-1.59,4.58-1.14,5.76
		c0.06,0.18,0.18,0.33,0.3,0.45c0.25,0.23,0.51,0.28,0.67,0.28s0.32-0.17,0.24-0.34c-0.05-0.12-0.11-0.08-0.22-0.07
		c-0.14,0-0.2-0.01-0.27-0.15c-0.24-0.6,0-1.91,0.4-3.19c0.3-0.93,0.67-1.78,1.08-2.59c0.49,0.06,1.03,0.11,1.64,0.11
		c0.93,0,1.96-0.12,3.11-0.55c0.11-0.04,0.2-0.16,0.2-0.25c0-0.05-0.04-0.1-0.13-0.1c-0.05,0-0.12,0.01-0.2,0.04
		c-0.84,0.3-1.68,0.4-2.5,0.4c-0.66,0-1.27-0.06-1.87-0.15C100.96,86.09,101.28,85.55,101.59,85.01L101.59,85.01z M102.57,90.19
		c-0.29-0.48-0.8-0.83-1.28-0.83c-0.85,0-1.62,1.61-1.62,2.47c0,0.34,0.56,0.99,0.93,0.99c0.64,0,1.22-0.44,1.63-0.97
		C102.59,91.39,102.87,90.7,102.57,90.19L102.57,90.19z M123.63,90.1c-0.16,0.62-0.98,1.38-1.62,1.73
		c-0.12,0.06-0.55,0.32-0.55,0.01c0-0.45,1.23-2.16,1.93-2.16C123.53,89.68,123.67,89.82,123.63,90.1L123.63,90.1z M84.21,91.69
		c-0.18-0.24,0.52-1.12,0.67-1.34c0.24-0.34,0.51-0.65,0.85-0.9c0.05,0.17,0.07,0.34,0.07,0.5c0,0.1-0.01,0.19-0.02,0.28
		c-0.04,0.16-0.11,0.31-0.19,0.45c-0.1,0.15-0.22,0.3-0.37,0.44C85.14,91.18,84.33,91.82,84.21,91.69L84.21,91.69z M101.26,90.32
		c0.18-0.16,0.38-0.31,0.52-0.03c0.15,0.32-0.03,0.76-0.25,1.08c-0.23,0.32-0.56,0.69-0.83,0.69c-0.24,0-0.14-0.41-0.1-0.58
		C100.71,91.05,100.97,90.6,101.26,90.32L101.26,90.32z M127.14,90.32c0.18-0.16,0.38-0.31,0.52-0.03c0.15,0.32-0.03,0.76-0.25,1.08
		c-0.23,0.32-0.56,0.69-0.83,0.69c-0.24,0-0.14-0.41-0.1-0.58C126.59,91.05,126.85,90.6,127.14,90.32L127.14,90.32z M114.69,88.4
		c0.2,0.13,0.27,0.38,0.56,0.38c0.2,0,0.54-0.06,0.2-0.37c-0.15-0.14-0.4-0.21-0.63-0.21c-0.05,0-0.11,0-0.15,0.01
		c-0.06,0.01-0.12,0.03-0.16,0.05c-0.01,0.01-0.06,0.04,0,0.06C114.58,88.34,114.64,88.36,114.69,88.4z"/>
</g>
</svg>
